==> Epoch <99> starting training...
 11%|█████████▍                                                                         | 4/35 [00:06<00:36,  1.18s/it]Training --> Step: 5     Loss: 0.0585    Acc: 97.812%    Correct/Total: (313/320)
         Specificity: 97.436%   Sensitivity: 98.171%    TP/TN: 152/161
 20%|████████████████▌                                                                  | 7/35 [00:06<00:15,  1.77it/s]Training --> Step: 10    Loss: 0.0555    Acc: 97.812%    Correct/Total: (626/640)
         Specificity: 97.966%   Sensitivity: 97.681%    TP/TN: 289/337
 37%|██████████████████████████████▍                                                   | 13/35 [00:06<00:04,  4.51it/s]Training --> Step: 15    Loss: 0.0609    Acc: 97.708%    Correct/Total: (938/960)
         Specificity: 98.013%   Sensitivity: 97.436%    TP/TN: 444/494
 54%|████████████████████████████████████████████▌                                     | 19/35 [00:06<00:01,  8.58it/s]Training --> Step: 20    Loss: 0.0744    Acc: 97.031%    Correct/Total: (1242/1280)
         Specificity: 97.496%   Sensitivity: 96.623%    TP/TN: 584/658
 63%|███████████████████████████████████████████████████▌                              | 22/35 [00:06<00:01, 11.00it/s]Training --> Step: 25    Loss: 0.0763    Acc: 97.000%    Correct/Total: (1552/1600)
         Specificity: 97.730%   Sensitivity: 96.357%    TP/TN: 732/820
 80%|█████████████████████████████████████████████████████████████████▌                | 28/35 [00:07<00:00, 15.78it/s]Training --> Step: 30    Loss: 0.0785    Acc: 96.979%    Correct/Total: (1862/1920)
         Specificity: 97.646%   Sensitivity: 96.401%    TP/TN: 871/991
 97%|███████████████████████████████████████████████████████████████████████████████▋  | 34/35 [00:07<00:00, 19.58it/s]Training --> Step: 35    Loss: 0.0793    Acc: 97.054%    Correct/Total: (2174/2240)
         Specificity: 97.788%   Sensitivity: 96.417%    TP/TN: 1017/1157
100%|██████████████████████████████████████████████████████████████████████████████████| 35/35 [00:07<00:00,  4.41it/s]

==> Epoch <99> starting validating...
100%|██████████████████████████████████████████████████████████████████████████████████| 21/21 [00:06<00:00,  3.13it/s]
Validating --> Step: 64         Loss: 0.2588    Acc: 76.711%    Correct/Total: (1031/1344)
             Specificity: 77.254%       Sensitivity: 76.040%    TP/TN: 574/457
 _______________________
|                       |
| Total time: 1338.56   |
| Epoch time: 14.68     |
| Training time: 7.93   |
| Val time: 6.71        |
|_______________________|

(ecg) D:\projects\ecg_comparator\comparator_learning>python evaluate.py --resume
../dataset/val_data
==> Load model...
==> Resuming from checkpoint...
The last model accuracy is 77.530%
Last training epoch: 68
==> Loading data...
==> DataLoader completed!
==> Data total samples: 4574
==> Loading data...
==> DataLoader completed!
==> Data total samples: 1368
checkpoint 0: 50 50
checkpoint 1: torch.Size([50, 1]) torch.Size([50, 8, 96])
checkpoint 2: 49.0 49.0
100%|██████████████████████████████████████████████████████████████████████████████| 1368/1368 [00:39<00:00, 34.75it/s]
Evaluation --> Loss: 0.0355     Acc: 78.728%    Correct/Total: (1077/1368)
         Specificity: 73.518%   Sensitivity: 85.222%    TP/TN: 558/519  Label 0/1: 609/759
Fast waves:
100%|██████████████████████████████████████████████████████████████████████████████████| 18/18 [00:11<00:00,  1.62it/s]
Glucose waves:
100%|██████████████████████████████████████████████████████████████████████████████████| 23/23 [00:10<00:00,  2.13it/s]
Total evaluated waves: 1368
Evaluation wave-wise--> Loss: 0.0506    Acc: 82.927%    Correct/Total: (34/41)
         Specificity: 73.913%   Sensitivity: 94.444%    TP/TN: 17/17    Label 0/1: 18/23
Wrong prediction list:
         ../dataset/val_data/NEW_CSV_DIR/fast1\ecg_2023-09-27_14.csv
         ../dataset/val_data/NEW_CSV_DIR/glucose1\ecg_2023-09-27_19.csv
         ../dataset/val_data/NEW_CSV_DIR/glucose1\ecg_2023-09-27_20.csv
         ../dataset/val_data/NEW_CSV_DIR/glucose1\ecg_2023-09-27_21.csv
         ../dataset/val_data/NEW_CSV_DIR/glucose1\ecg_2023-09-27_24.csv
         ../dataset/val_data/NEW_CSV_DIR/glucose1\ecg_2023-09-27_25.csv
         ../dataset/val_data/NEW_CSV_DIR/glucose1\ecg_2023-09-27_26.csv

(ecg) D:\projects\ecg_comparator\comparator_learning>python evaluate.py
../dataset/val_data
==> Load model...
==> Loading data...
==> DataLoader completed!
==> Data total samples: 4574
==> Loading data...
==> DataLoader completed!
==> Data total samples: 1368
checkpoint 0: 50 50
checkpoint 1: torch.Size([50, 1]) torch.Size([50, 8, 96])
checkpoint 2: 48.0 49.0
100%|██████████████████████████████████████████████████████████████████████████████| 1368/1368 [00:33<00:00, 40.52it/s]
Evaluation --> Loss: 0.0374     Acc: 78.874%    Correct/Total: (1079/1368)
         Specificity: 68.116%   Sensitivity: 92.282%    TP/TN: 517/562  Label 0/1: 609/759
Fast waves:
100%|██████████████████████████████████████████████████████████████████████████████████| 18/18 [00:07<00:00,  2.42it/s]
Glucose waves:
100%|██████████████████████████████████████████████████████████████████████████████████| 23/23 [00:09<00:00,  2.44it/s]
Total evaluated waves: 1368
Evaluation wave-wise--> Loss: 0.0547    Acc: 82.927%    Correct/Total: (34/41)
         Specificity: 73.913%   Sensitivity: 94.444%    TP/TN: 17/17    Label 0/1: 18/23
Wrong prediction list:
         ../dataset/val_data/NEW_CSV_DIR/fast1\ecg_2023-09-27_14.csv
         ../dataset/val_data/NEW_CSV_DIR/glucose1\ecg_2023-09-27_19.csv
         ../dataset/val_data/NEW_CSV_DIR/glucose1\ecg_2023-09-27_20.csv
         ../dataset/val_data/NEW_CSV_DIR/glucose1\ecg_2023-09-27_21.csv
         ../dataset/val_data/NEW_CSV_DIR/glucose1\ecg_2023-09-27_24.csv
         ../dataset/val_data/NEW_CSV_DIR/glucose1\ecg_2023-09-27_25.csv
         ../dataset/val_data/NEW_CSV_DIR/glucose1\ecg_2023-09-27_26.csv

(ecg) D:\projects\ecg_comparator\comparator_learning>python evaluate.py --resume
../dataset/test_data
==> Load model...
==> Resuming from checkpoint...
The last model accuracy is 77.530%
Last training epoch: 68
==> Loading data...
==> DataLoader completed!
==> Data total samples: 4574
==> Loading data...
==> DataLoader completed!
==> Data total samples: 2601
checkpoint 0: 50 50
checkpoint 1: torch.Size([50, 1]) torch.Size([50, 8, 96])
checkpoint 2: 46.0 45.0
100%|██████████████████████████████████████████████████████████████████████████████| 2601/2601 [01:03<00:00, 41.11it/s]
Evaluation --> Loss: 0.0435     Acc: 96.770%    Correct/Total: (2517/2601)
         Specificity: 95.991%   Sensitivity: 97.608%    TP/TN: 1293/1224        Label 0/1: 1254/1347
Fast waves:
100%|██████████████████████████████████████████████████████████████████████████████████| 40/40 [00:15<00:00,  2.64it/s]
Glucose waves:
100%|██████████████████████████████████████████████████████████████████████████████████| 37/37 [00:18<00:00,  2.00it/s]
Total evaluated waves: 2601
Evaluation wave-wise--> Loss: 0.0577    Acc: 100.000%   Correct/Total: (77/77)
         Specificity: 100.000%  Sensitivity: 100.000%   TP/TN: 37/40    Label 0/1: 40/37
Wrong prediction list:

(ecg) D:\projects\ecg_comparator\comparator_learning>python evaluate.py
../dataset/test_data
==> Load model...
==> Loading data...
==> DataLoader completed!
==> Data total samples: 4574
==> Loading data...
==> DataLoader completed!
==> Data total samples: 2601
checkpoint 0: 50 50
checkpoint 1: torch.Size([50, 1]) torch.Size([50, 8, 96])
checkpoint 2: 48.0 48.0
100%|██████████████████████████████████████████████████████████████████████████████| 2601/2601 [01:09<00:00, 37.60it/s]
Evaluation --> Loss: 0.0454     Acc: 95.886%    Correct/Total: (2494/2601)
         Specificity: 93.467%   Sensitivity: 98.485%    TP/TN: 1259/1235        Label 0/1: 1254/1347
Fast waves:
100%|██████████████████████████████████████████████████████████████████████████████████| 40/40 [00:20<00:00,  1.98it/s]
Glucose waves:
100%|██████████████████████████████████████████████████████████████████████████████████| 37/37 [00:46<00:00,  1.26s/it]
Total evaluated waves: 2601
Evaluation wave-wise--> Loss: 0.0621    Acc: 100.000%   Correct/Total: (77/77)
         Specificity: 100.000%  Sensitivity: 100.000%   TP/TN: 37/40    Label 0/1: 40/37
Wrong prediction list:
